# xmcd
#
# Track frame offsets:
#	150
#	15698
#	26613
#	44030
#	58225
#	70095
#	87553
#	98515
#	121490
#	137608
#	156460
#
# Disc length: 2285 seconds
#
# Revision: 3
# Processed by: cddbd v1.5.2PL0 Copyright (c) Steve Scherf et al.
# Submitted via: EasyCDDAExtractor 15.3.0.1
#
DISCID=9908eb0b
DTITLE=Rocio Durcal - Canta Once Grandes Exitos De Juan Gabriel
DYEAR=1987
DGENRE=Latin
TTITLE0=No Me Vuelvo A Enamorar
TTITLE1=Yo Me Voy
TTITLE2=El Dia Que Me Acaricies Llorare
TTITLE3=El Farsante
TTITLE4=No Vale La Pena
TTITLE5=Con Todo Y Mi Tristeza
TTITLE6=Todo
TTITLE7=Yo No Se Que Me Paso
TTITLE8=Caray
TTITLE9=Inocente Pobre Amiga
TTITLE10=La Diferencia
EXTD=YEAR: 1987
EXTT0=
EXTT1=
EXTT2=
EXTT3=
EXTT4=
EXTT5=
EXTT6=
EXTT7=
EXTT8=
EXTT9=
EXTT10=
PLAYORDER=
